<?xml version="1.0" encoding="UTF-8" standalone="no"?>
<!DOCTYPE svg PUBLIC "-//W3C//DTD SVG 1.1//EN"
 "http://www.w3.org/Graphics/SVG/1.1/DTD/svg11.dtd">
<!-- Generated by graphviz version 2.40.1 (20161225.0304)
 -->
<!-- Title: controllers_diagram Pages: 1 -->
<svg width="538pt" height="476pt"
 viewBox="0.00 0.00 537.64 476.00" xmlns="http://www.w3.org/2000/svg" xmlns:xlink="http://www.w3.org/1999/xlink">
<g id="graph0" class="graph" transform="scale(1 1) rotate(0) translate(4 472)">
<title>controllers_diagram</title>
<polygon fill="transparent" stroke="transparent" points="-4,4 -4,-472 533.6416,-472 533.6416,4 -4,4"/>
<!-- _diagram_info -->
<g id="node1" class="node">
<title>_diagram_info</title>
<text text-anchor="start" x="293" y="-148.6" font-family="Times,serif" font-size="13.00" fill="#000000">Controllers diagram</text>
<text text-anchor="start" x="293" y="-135.6" font-family="Times,serif" font-size="13.00" fill="#000000">Date: Nov 23 2017 &#45; 05:41</text>
<text text-anchor="start" x="293" y="-122.6" font-family="Times,serif" font-size="13.00" fill="#000000">Migration version: 20171121190732</text>
<text text-anchor="start" x="293" y="-109.6" font-family="Times,serif" font-size="13.00" fill="#000000">Generated by RailRoady 1.5.3</text>
<text text-anchor="start" x="293" y="-96.6" font-family="Times,serif" font-size="13.00" fill="#000000">http://railroady.prestonlee.com</text>
</g>
<!-- ApplicationController -->
<g id="node2" class="node">
<title>ApplicationController</title>
<path fill="none" stroke="#000000" d="M402,-375.5C402,-375.5 517.6416,-375.5 517.6416,-375.5 523.6416,-375.5 529.6416,-381.5 529.6416,-387.5 529.6416,-387.5 529.6416,-455.5 529.6416,-455.5 529.6416,-461.5 523.6416,-467.5 517.6416,-467.5 517.6416,-467.5 402,-467.5 402,-467.5 396,-467.5 390,-461.5 390,-455.5 390,-455.5 390,-387.5 390,-387.5 390,-381.5 396,-375.5 402,-375.5"/>
<text text-anchor="middle" x="459.8208" y="-452.3" font-family="Times,serif" font-size="14.00" fill="#000000">ApplicationController</text>
<polyline fill="none" stroke="#000000" points="390,-445.5 529.6416,-445.5 "/>
<polyline fill="none" stroke="#000000" points="390,-421.5 529.6416,-421.5 "/>
<polyline fill="none" stroke="#000000" points="390,-397.5 529.6416,-397.5 "/>
<text text-anchor="start" x="398" y="-382.3" font-family="Times,serif" font-size="14.00" fill="#000000">_layout</text>
</g>
<!-- EmailsController -->
<g id="node3" class="node">
<title>EmailsController</title>
<path fill="none" stroke="#000000" d="M297,-195.5C297,-195.5 385.4277,-195.5 385.4277,-195.5 391.4277,-195.5 397.4277,-201.5 397.4277,-207.5 397.4277,-207.5 397.4277,-329.5 397.4277,-329.5 397.4277,-335.5 391.4277,-341.5 385.4277,-341.5 385.4277,-341.5 297,-341.5 297,-341.5 291,-341.5 285,-335.5 285,-329.5 285,-329.5 285,-207.5 285,-207.5 285,-201.5 291,-195.5 297,-195.5"/>
<text text-anchor="middle" x="341.2139" y="-326.3" font-family="Times,serif" font-size="14.00" fill="#000000">EmailsController</text>
<polyline fill="none" stroke="#000000" points="285,-319.5 397.4277,-319.5 "/>
<text text-anchor="start" x="293" y="-304.3" font-family="Times,serif" font-size="14.00" fill="#000000">create</text>
<text text-anchor="start" x="293" y="-290.3" font-family="Times,serif" font-size="14.00" fill="#000000">index</text>
<text text-anchor="start" x="293" y="-276.3" font-family="Times,serif" font-size="14.00" fill="#000000">new</text>
<text text-anchor="start" x="293" y="-262.3" font-family="Times,serif" font-size="14.00" fill="#000000">show</text>
<polyline fill="none" stroke="#000000" points="285,-255.5 397.4277,-255.5 "/>
<polyline fill="none" stroke="#000000" points="285,-231.5 397.4277,-231.5 "/>
<text text-anchor="start" x="293" y="-216.3" font-family="Times,serif" font-size="14.00" fill="#000000">_layout</text>
<text text-anchor="start" x="293" y="-202.3" font-family="Times,serif" font-size="14.00" fill="#000000">email_params</text>
</g>
<!-- JsonController -->
<g id="node4" class="node">
<title>JsonController</title>
<path fill="none" stroke="#000000" d="M12,-.5C12,-.5 86.4414,-.5 86.4414,-.5 92.4414,-.5 98.4414,-6.5 98.4414,-12.5 98.4414,-12.5 98.4414,-78.5 98.4414,-78.5 98.4414,-84.5 92.4414,-90.5 86.4414,-90.5 86.4414,-90.5 12,-90.5 12,-90.5 6,-90.5 0,-84.5 0,-78.5 0,-78.5 0,-12.5 0,-12.5 0,-6.5 6,-.5 12,-.5"/>
<text text-anchor="middle" x="49.2207" y="-75.3" font-family="Times,serif" font-size="14.00" fill="#000000">JsonController</text>
<polyline fill="none" stroke="#000000" points="0,-68.5 98.4414,-68.5 "/>
<text text-anchor="start" x="8" y="-53.3" font-family="Times,serif" font-size="14.00" fill="#000000">index</text>
<polyline fill="none" stroke="#000000" points="0,-46.5 98.4414,-46.5 "/>
<polyline fill="none" stroke="#000000" points="0,-22.5 98.4414,-22.5 "/>
<text text-anchor="start" x="8" y="-7.3" font-family="Times,serif" font-size="14.00" fill="#000000">_layout</text>
</g>
<!-- MessagesController -->
<g id="node5" class="node">
<title>MessagesController</title>
<path fill="none" stroke="#000000" d="M132,-300.5C132,-300.5 235.9795,-300.5 235.9795,-300.5 241.9795,-300.5 247.9795,-306.5 247.9795,-312.5 247.9795,-312.5 247.9795,-420.5 247.9795,-420.5 247.9795,-426.5 241.9795,-432.5 235.9795,-432.5 235.9795,-432.5 132,-432.5 132,-432.5 126,-432.5 120,-426.5 120,-420.5 120,-420.5 120,-312.5 120,-312.5 120,-306.5 126,-300.5 132,-300.5"/>
<text text-anchor="middle" x="183.9897" y="-417.3" font-family="Times,serif" font-size="14.00" fill="#000000">MessagesController</text>
<polyline fill="none" stroke="#000000" points="120,-410.5 247.9795,-410.5 "/>
<text text-anchor="start" x="128" y="-395.3" font-family="Times,serif" font-size="14.00" fill="#000000">create</text>
<text text-anchor="start" x="128" y="-381.3" font-family="Times,serif" font-size="14.00" fill="#000000">generate_header</text>
<text text-anchor="start" x="128" y="-367.3" font-family="Times,serif" font-size="14.00" fill="#000000">message_params</text>
<text text-anchor="start" x="128" y="-353.3" font-family="Times,serif" font-size="14.00" fill="#000000">new</text>
<polyline fill="none" stroke="#000000" points="120,-346.5 247.9795,-346.5 "/>
<polyline fill="none" stroke="#000000" points="120,-322.5 247.9795,-322.5 "/>
<text text-anchor="start" x="128" y="-307.3" font-family="Times,serif" font-size="14.00" fill="#000000">_layout</text>
</g>
<!-- TextsController -->
<g id="node6" class="node">
<title>TextsController</title>
<path fill="none" stroke="#000000" d="M12,-120.5C12,-120.5 91.6709,-120.5 91.6709,-120.5 97.6709,-120.5 103.6709,-126.5 103.6709,-132.5 103.6709,-132.5 103.6709,-254.5 103.6709,-254.5 103.6709,-260.5 97.6709,-266.5 91.6709,-266.5 91.6709,-266.5 12,-266.5 12,-266.5 6,-266.5 0,-260.5 0,-254.5 0,-254.5 0,-132.5 0,-132.5 0,-126.5 6,-120.5 12,-120.5"/>
<text text-anchor="middle" x="51.8354" y="-251.3" font-family="Times,serif" font-size="14.00" fill="#000000">TextsController</text>
<polyline fill="none" stroke="#000000" points="0,-244.5 103.6709,-244.5 "/>
<text text-anchor="start" x="8" y="-229.3" font-family="Times,serif" font-size="14.00" fill="#000000">create</text>
<text text-anchor="start" x="8" y="-215.3" font-family="Times,serif" font-size="14.00" fill="#000000">index</text>
<text text-anchor="start" x="8" y="-201.3" font-family="Times,serif" font-size="14.00" fill="#000000">new</text>
<text text-anchor="start" x="8" y="-187.3" font-family="Times,serif" font-size="14.00" fill="#000000">show</text>
<polyline fill="none" stroke="#000000" points="0,-180.5 103.6709,-180.5 "/>
<polyline fill="none" stroke="#000000" points="0,-156.5 103.6709,-156.5 "/>
<text text-anchor="start" x="8" y="-141.3" font-family="Times,serif" font-size="14.00" fill="#000000">_layout</text>
<text text-anchor="start" x="8" y="-127.3" font-family="Times,serif" font-size="14.00" fill="#000000">text_params</text>
</g>
<!-- TweetsController -->
<g id="node7" class="node">
<title>TweetsController</title>
<path fill="none" stroke="#000000" d="M147,-90.5C147,-90.5 235.9951,-90.5 235.9951,-90.5 241.9951,-90.5 247.9951,-96.5 247.9951,-102.5 247.9951,-102.5 247.9951,-252.5 247.9951,-252.5 247.9951,-258.5 241.9951,-264.5 235.9951,-264.5 235.9951,-264.5 147,-264.5 147,-264.5 141,-264.5 135,-258.5 135,-252.5 135,-252.5 135,-102.5 135,-102.5 135,-96.5 141,-90.5 147,-90.5"/>
<text text-anchor="middle" x="191.4976" y="-249.3" font-family="Times,serif" font-size="14.00" fill="#000000">TweetsController</text>
<polyline fill="none" stroke="#000000" points="135,-242.5 247.9951,-242.5 "/>
<text text-anchor="start" x="143" y="-227.3" font-family="Times,serif" font-size="14.00" fill="#000000">create</text>
<text text-anchor="start" x="143" y="-213.3" font-family="Times,serif" font-size="14.00" fill="#000000">index</text>
<text text-anchor="start" x="143" y="-199.3" font-family="Times,serif" font-size="14.00" fill="#000000">new</text>
<text text-anchor="start" x="143" y="-185.3" font-family="Times,serif" font-size="14.00" fill="#000000">show</text>
<polyline fill="none" stroke="#000000" points="135,-178.5 247.9951,-178.5 "/>
<polyline fill="none" stroke="#000000" points="135,-154.5 247.9951,-154.5 "/>
<text text-anchor="start" x="143" y="-139.3" font-family="Times,serif" font-size="14.00" fill="#000000">_layout</text>
<text text-anchor="start" x="143" y="-125.3" font-family="Times,serif" font-size="14.00" fill="#000000">get_hashtags</text>
<text text-anchor="start" x="143" y="-111.3" font-family="Times,serif" font-size="14.00" fill="#000000">get_mentions</text>
<text text-anchor="start" x="143" y="-97.3" font-family="Times,serif" font-size="14.00" fill="#000000">tweet_params</text>
</g>
</g>
</svg>
