<?xml version="1.0" encoding="UTF-8" standalone="no"?>
<!DOCTYPE svg PUBLIC "-//W3C//DTD SVG 1.1//EN"
 "http://www.w3.org/Graphics/SVG/1.1/DTD/svg11.dtd">
<!-- Generated by graphviz version 2.40.1 (20161225.0304)
 -->
<!-- Title: models_diagram Pages: 1 -->
<svg width="1004pt" height="193pt"
 viewBox="0.00 0.00 1003.72 193.00" xmlns="http://www.w3.org/2000/svg" xmlns:xlink="http://www.w3.org/1999/xlink">
<g id="graph0" class="graph" transform="scale(1 1) rotate(0) translate(4 189)">
<title>models_diagram</title>
<polygon fill="transparent" stroke="transparent" points="-4,4 -4,-189 999.7239,-189 999.7239,4 -4,4"/>
<!-- _diagram_info -->
<g id="node1" class="node">
<title>_diagram_info</title>
<text text-anchor="start" x="8" y="-114.6" font-family="Times,serif" font-size="13.00" fill="#000000">Models diagram</text>
<text text-anchor="start" x="8" y="-101.6" font-family="Times,serif" font-size="13.00" fill="#000000">Date: Nov 23 2017 &#45; 05:41</text>
<text text-anchor="start" x="8" y="-88.6" font-family="Times,serif" font-size="13.00" fill="#000000">Migration version: 20171121190732</text>
<text text-anchor="start" x="8" y="-75.6" font-family="Times,serif" font-size="13.00" fill="#000000">Generated by RailRoady 1.5.3</text>
<text text-anchor="start" x="8" y="-62.6" font-family="Times,serif" font-size="13.00" fill="#000000">http://railroady.prestonlee.com</text>
</g>
<!-- ApplicationRecord -->
<g id="node2" class="node">
<title>ApplicationRecord</title>
<ellipse fill="none" stroke="#000000" cx="302.2117" cy="-92.5" rx="77.2916" ry="18"/>
<text text-anchor="middle" x="302.2117" y="-88.3" font-family="Times,serif" font-size="14.00" fill="#000000">ApplicationRecord</text>
</g>
<!-- Email -->
<g id="node3" class="node">
<title>Email</title>
<path fill="none" stroke="#000000" d="M409.8718,-.5C409.8718,-.5 530.5515,-.5 530.5515,-.5 536.5515,-.5 542.5515,-6.5 542.5515,-12.5 542.5515,-12.5 542.5515,-172.5 542.5515,-172.5 542.5515,-178.5 536.5515,-184.5 530.5515,-184.5 530.5515,-184.5 409.8718,-184.5 409.8718,-184.5 403.8718,-184.5 397.8718,-178.5 397.8718,-172.5 397.8718,-172.5 397.8718,-12.5 397.8718,-12.5 397.8718,-6.5 403.8718,-.5 409.8718,-.5"/>
<text text-anchor="middle" x="470.2117" y="-169.3" font-family="Times,serif" font-size="14.00" fill="#000000">Email</text>
<polyline fill="none" stroke="#000000" points="397.8718,-162.5 542.5515,-162.5 "/>
<text text-anchor="start" x="405.8718" y="-147.3" font-family="Times,serif" font-size="14.00" fill="#000000">is_standard :boolean</text>
<text text-anchor="start" x="405.8718" y="-133.3" font-family="Times,serif" font-size="14.00" fill="#000000">sender :varchar</text>
<text text-anchor="start" x="405.8718" y="-119.3" font-family="Times,serif" font-size="14.00" fill="#000000">subject :varchar</text>
<text text-anchor="start" x="405.8718" y="-105.3" font-family="Times,serif" font-size="14.00" fill="#000000">body :text</text>
<text text-anchor="start" x="405.8718" y="-91.3" font-family="Times,serif" font-size="14.00" fill="#000000">created_at :datetime</text>
<text text-anchor="start" x="405.8718" y="-77.3" font-family="Times,serif" font-size="14.00" fill="#000000">updated_at :datetime</text>
<text text-anchor="start" x="405.8718" y="-63.3" font-family="Times,serif" font-size="14.00" fill="#000000">header :text</text>
<text text-anchor="start" x="405.8718" y="-49.3" font-family="Times,serif" font-size="14.00" fill="#000000">in_quarantine :boolean</text>
<text text-anchor="start" x="405.8718" y="-35.3" font-family="Times,serif" font-size="14.00" fill="#000000">incident :text</text>
<text text-anchor="start" x="405.8718" y="-21.3" font-family="Times,serif" font-size="14.00" fill="#000000">centre_code :text</text>
<text text-anchor="start" x="405.8718" y="-7.3" font-family="Times,serif" font-size="14.00" fill="#000000">id :INTEGER</text>
</g>
<!-- Message -->
<g id="node4" class="node">
<title>Message</title>
<path fill="none" stroke="#000000" d="M572.7063,-35.5C572.7063,-35.5 681.717,-35.5 681.717,-35.5 687.717,-35.5 693.717,-41.5 693.717,-47.5 693.717,-47.5 693.717,-137.5 693.717,-137.5 693.717,-143.5 687.717,-149.5 681.717,-149.5 681.717,-149.5 572.7063,-149.5 572.7063,-149.5 566.7063,-149.5 560.7063,-143.5 560.7063,-137.5 560.7063,-137.5 560.7063,-47.5 560.7063,-47.5 560.7063,-41.5 566.7063,-35.5 572.7063,-35.5"/>
<text text-anchor="middle" x="627.2117" y="-134.3" font-family="Times,serif" font-size="14.00" fill="#000000">Message</text>
<polyline fill="none" stroke="#000000" points="560.7063,-127.5 693.717,-127.5 "/>
<text text-anchor="start" x="568.7063" y="-112.3" font-family="Times,serif" font-size="14.00" fill="#000000">id :INTEGER</text>
<text text-anchor="start" x="568.7063" y="-98.3" font-family="Times,serif" font-size="14.00" fill="#000000">sender :varchar</text>
<text text-anchor="start" x="568.7063" y="-84.3" font-family="Times,serif" font-size="14.00" fill="#000000">body :text</text>
<text text-anchor="start" x="568.7063" y="-70.3" font-family="Times,serif" font-size="14.00" fill="#000000">created_at :datetime</text>
<text text-anchor="start" x="568.7063" y="-56.3" font-family="Times,serif" font-size="14.00" fill="#000000">updated_at :datetime</text>
<text text-anchor="start" x="568.7063" y="-42.3" font-family="Times,serif" font-size="14.00" fill="#000000">subject :text</text>
</g>
<!-- Text -->
<g id="node5" class="node">
<title>Text</title>
<path fill="none" stroke="#000000" d="M723.6995,-28.5C723.6995,-28.5 832.7239,-28.5 832.7239,-28.5 838.7239,-28.5 844.7239,-34.5 844.7239,-40.5 844.7239,-40.5 844.7239,-144.5 844.7239,-144.5 844.7239,-150.5 838.7239,-156.5 832.7239,-156.5 832.7239,-156.5 723.6995,-156.5 723.6995,-156.5 717.6995,-156.5 711.6995,-150.5 711.6995,-144.5 711.6995,-144.5 711.6995,-40.5 711.6995,-40.5 711.6995,-34.5 717.6995,-28.5 723.6995,-28.5"/>
<text text-anchor="middle" x="778.2117" y="-141.3" font-family="Times,serif" font-size="14.00" fill="#000000">Text</text>
<polyline fill="none" stroke="#000000" points="711.6995,-134.5 844.7239,-134.5 "/>
<text text-anchor="start" x="719.6995" y="-119.3" font-family="Times,serif" font-size="14.00" fill="#000000">created_at :datetime</text>
<text text-anchor="start" x="719.6995" y="-105.3" font-family="Times,serif" font-size="14.00" fill="#000000">sender :varchar</text>
<text text-anchor="start" x="719.6995" y="-91.3" font-family="Times,serif" font-size="14.00" fill="#000000">body :text</text>
<text text-anchor="start" x="719.6995" y="-77.3" font-family="Times,serif" font-size="14.00" fill="#000000">id :INTEGER</text>
<text text-anchor="start" x="719.6995" y="-63.3" font-family="Times,serif" font-size="14.00" fill="#000000">updated_at :datetime</text>
<text text-anchor="start" x="719.6995" y="-49.3" font-family="Times,serif" font-size="14.00" fill="#000000">expanded_body :text</text>
<text text-anchor="start" x="719.6995" y="-35.3" font-family="Times,serif" font-size="14.00" fill="#000000">header :text</text>
</g>
<!-- Tweet -->
<g id="node6" class="node">
<title>Tweet</title>
<path fill="none" stroke="#000000" d="M874.6995,-14.5C874.6995,-14.5 983.7239,-14.5 983.7239,-14.5 989.7239,-14.5 995.7239,-20.5 995.7239,-26.5 995.7239,-26.5 995.7239,-158.5 995.7239,-158.5 995.7239,-164.5 989.7239,-170.5 983.7239,-170.5 983.7239,-170.5 874.6995,-170.5 874.6995,-170.5 868.6995,-170.5 862.6995,-164.5 862.6995,-158.5 862.6995,-158.5 862.6995,-26.5 862.6995,-26.5 862.6995,-20.5 868.6995,-14.5 874.6995,-14.5"/>
<text text-anchor="middle" x="929.2117" y="-155.3" font-family="Times,serif" font-size="14.00" fill="#000000">Tweet</text>
<polyline fill="none" stroke="#000000" points="862.6995,-148.5 995.7239,-148.5 "/>
<text text-anchor="start" x="870.6995" y="-133.3" font-family="Times,serif" font-size="14.00" fill="#000000">mentions :varchar</text>
<text text-anchor="start" x="870.6995" y="-119.3" font-family="Times,serif" font-size="14.00" fill="#000000">sender :integer</text>
<text text-anchor="start" x="870.6995" y="-105.3" font-family="Times,serif" font-size="14.00" fill="#000000">body :text</text>
<text text-anchor="start" x="870.6995" y="-91.3" font-family="Times,serif" font-size="14.00" fill="#000000">expanded_body :text</text>
<text text-anchor="start" x="870.6995" y="-77.3" font-family="Times,serif" font-size="14.00" fill="#000000">created_at :datetime</text>
<text text-anchor="start" x="870.6995" y="-63.3" font-family="Times,serif" font-size="14.00" fill="#000000">updated_at :datetime</text>
<text text-anchor="start" x="870.6995" y="-49.3" font-family="Times,serif" font-size="14.00" fill="#000000">hashtag :varchar</text>
<text text-anchor="start" x="870.6995" y="-35.3" font-family="Times,serif" font-size="14.00" fill="#000000">header :text</text>
<text text-anchor="start" x="870.6995" y="-21.3" font-family="Times,serif" font-size="14.00" fill="#000000">id :INTEGER</text>
</g>
</g>
</svg>
